<?xml version="1.0" encoding="UTF-8"?>
<svg width="723px" height="150px" viewBox="0 0 723 150" version="1.1" xmlns="http://www.w3.org/2000/svg" xmlns:xlink="http://www.w3.org/1999/xlink">
    <!-- Generator: Sketch 41.2 (35397) - http://www.bohemiancoding.com/sketch -->
    <title>DIRECT</title>
    <desc>Created with Sketch.</desc>
    <defs></defs>
    <g id="Horizontal" stroke="none" stroke-width="1" fill="none" fill-rule="evenodd">
        <g id="DIRECT" transform="translate(3.000000, 3.000000)">
            <path d="M0,141 L39.744,141 C96.192,141 120,110.335714 120,71.7642857 C120,36.4714286 100.224,6 42.624,6 L0,6 L0,141 Z M42.5806452,33 C77.8064516,33 90,47.8390244 90,70.2878049 C90,95.0195122 76.4516129,111 42.5806452,111 L30,111 L30,33 L42.5806452,33 Z M239.807692,141 L239.807692,94.9071429 L261.153846,94.9071429 L294.038462,141 L330,141 L292.5,89.5071429 C308.653846,83.1428571 318.846154,67.3285714 318.846154,49.9714286 C318.846154,27.6 307.307692,6 264.423077,6 L210,6 L210,141 L239.807692,141 Z M261,33 C280.008,33 285,39.3684211 285,49.0175439 C285,59.8245614 276.744,66 262.152,66 L237,66 L237,33 L261,33 Z M351,141 L456,141 L456,113.035714 L380.917279,113.035714 L380.917279,86.0357143 L449.4375,86.0357143 L449.4375,59.0357143 L380.917279,59.0357143 L380.917279,33.9642857 L454.262868,33.9642857 L454.262868,6 L351,6 L351,141 Z M573.329268,93.6754144 C564.109756,105.360497 551.240854,111.787293 536.259146,111.787293 C513.018293,111.787293 495.92378,95.038674 495.92378,70.5 C495.92378,45.1823204 512.634146,29.2127072 536.643293,29.2127072 C547.591463,29.2127072 560.652439,34.4709945 568.719512,44.5980663 L588.887195,25.9019337 C579.283537,10.5165746 559.115854,0 534.530488,0 C492.85061,0 465,31.5497238 465,70.5 C465,112.76105 491.890244,141 533.762195,141 C557.579268,141 578.89939,130.872928 591,112.955801 L573.329268,93.6754144 Z M600,33.9642857 L643.390728,33.9642857 L643.390728,141 L673.415563,141 L673.415563,33.9642857 L717,33.9642857 L717,6 L600,6 L600,33.9642857 Z" stroke="#624E4E" stroke-width="6" fill-opacity="0" fill="#D8D8D8"></path>
            <path d="M101.205607,46 C105.803761,46 109.084102,47.0449895 111.046729,49.135 C113.009356,51.2250104 113.990654,54.3871217 113.990654,58.6214286 L113.990654,61.3085714 C113.990654,64.3485866 113.485986,66.8049906 112.476636,68.6778571 C111.467285,70.5507237 109.67291,71.8671391 107.093458,72.6271429 C109.953285,73.3871467 111.985975,74.8257037 113.191589,76.9428571 C114.397202,79.0600106 115,81.6928414 115,84.8414286 L115,89.6457143 C115,93.9343072 113.906553,97.2321313 111.719626,99.5392857 C109.532699,101.84644 106.14021,103 101.542056,103 L88,103 L88,46 L101.205607,46 Z M98.6753247,70 C101.116895,70 102.948046,69.4955803 104.168831,68.4867257 C105.389616,67.4778711 106,65.5132889 106,62.5929204 L106,59.3274336 C106,56.8318459 105.545459,54.9867316 104.636364,53.7920354 C103.727268,52.5973392 102.181829,52 100,52 L94,52 L94,70 L98.6753247,70 Z M101.5,97 C106.500025,97 109,94.4521328 109,89.3563218 L109,84.3678161 C109,81.2030493 108.292176,79.0172474 106.876506,77.8103448 C105.460836,76.6034422 103.216883,76 100.144578,76 L94,76 L94,97 L101.5,97 Z M131.795276,91.5185714 L129.669291,103 L124,103 L134.551181,46 L143.448819,46 L154,103 L147.858268,103 L145.732283,91.5185714 L131.795276,91.5185714 Z M133,88 L145,88 L138.923077,55 L133,88 Z M171.727273,103 L166,103 L166,46 L174.1,46 L187.354545,87.2028571 L187.354545,46 L193,46 L193,103 L186.372727,103 L171.727273,56.9114286 L171.727273,103 Z M218.708978,46 C223.278661,46 226.636212,47.2621302 228.781734,49.7864286 C230.927255,52.3107269 232,55.7714066 232,60.1685714 L232,88.9128571 C232,93.310022 230.927255,96.7571304 228.781734,99.2542857 C226.636212,101.751441 223.278661,103 218.708978,103 L205,103 L205,46 L218.708978,46 Z M218.589286,97 C221.089298,97 222.949399,96.314523 224.169643,94.9435484 C225.389887,93.5725738 226,91.5967871 226,89.016129 L226,59.983871 C226,57.4032129 225.389887,55.4274262 224.169643,54.0564516 C222.949399,52.685477 221.059537,52 218.5,52 L211,52 L211,97 L218.589286,97 Z" id="BAND" fill="#624E4E" transform="translate(160.000000, 74.500000) rotate(-90.000000) translate(-160.000000, -74.500000) "></path>
        </g>
    </g>
</svg>